<svg width="45" height="45" viewBox="0 0 45 45" fill="none" xmlns="http://www.w3.org/2000/svg">
<path d="M22.5251 10.858C24.6811 10.858 26.6271 11.376 28.3631 12.412C30.1271 13.42 31.5131 14.82 32.5211 16.612C33.5571 18.376 34.0751 20.35 34.0751 22.534V31.9C34.0751 32.516 33.8651 33.034 33.4451 33.454C33.0531 33.846 32.5491 34.042 31.9331 34.042C31.3171 34.042 30.7991 33.846 30.3791 33.454C29.9871 33.034 29.7911 32.516 29.7911 31.9V30.346C28.8111 31.55 27.6211 32.488 26.2211 33.16C24.8211 33.832 23.3091 34.168 21.6851 34.168C19.6691 34.168 17.8351 33.664 16.1831 32.656C14.5591 31.648 13.2711 30.262 12.3191 28.498C11.3951 26.706 10.9331 24.718 10.9331 22.534C10.9331 20.35 11.4371 18.376 12.4451 16.612C13.4531 14.82 14.8391 13.42 16.6031 12.412C18.3951 11.376 20.3691 10.858 22.5251 10.858ZM22.5251 30.388C23.9251 30.388 25.1851 30.052 26.3051 29.38C27.4531 28.68 28.3491 27.742 28.9931 26.566C29.6371 25.362 29.9591 24.018 29.9591 22.534C29.9591 21.05 29.6371 19.706 28.9931 18.502C28.3491 17.298 27.4531 16.36 26.3051 15.688C25.1851 14.988 23.9251 14.638 22.5251 14.638C21.1251 14.638 19.8511 14.988 18.7031 15.688C17.5831 16.36 16.6871 17.298 16.0151 18.502C15.3711 19.706 15.0491 21.05 15.0491 22.534C15.0491 24.018 15.3711 25.362 16.0151 26.566C16.6871 27.742 17.5831 28.68 18.7031 29.38C19.8511 30.052 21.1251 30.388 22.5251 30.388Z" fill="#212529"/>
<rect x="-1.5" y="1.5" width="42" height="42" rx="6.5" transform="matrix(-1 0 0 1 42 0)" stroke="#212529" stroke-width="1"/>
</svg>
