<?xml version="1.0" encoding="UTF-8" standalone="no"?>
<svg
   width="414.36185pt"
   height="414.38745pt"
   version="1.1"
   viewBox="0 0 414.36185 414.38745"
   id="svg8"
   sodipodidocname="brainIcon.svg"
   xmlnsinkscape="http://www.inkscape.org/namespaces/inkscape"
   xmlnssodipodi="http://sodipodi.sourceforge.net/DTD/sodipodi-0.dtd"
   xmlns="http://www.w3.org/2000/svg"
   xmlnssvg="http://www.w3.org/2000/svg">
  <defs
     id="defs12" />
  <sodipodinamedview
     id="namedview10"
     pagecolor="#ffffff"
     bordercolor="#000000"
     borderopacity="0.25"
     inkscapeshowpageshadow="2"
     inkscapepageopacity="0.0"
     inkscapepagecheckerboard="0"
     inkscapedeskcolor="#d1d1d1"
     inkscapedocument-units="pt"
     showgrid="false" />
  <g
     fill="#202528"
     id="g6"
     transform="translate(-168.81272,-168.8042)">
    <path
       d="m 473.14,362.43 c 22.273,0 40.461,16.93 42.918,38.551 l 0.72656,-0.80078 c 7.3125,6.6445 16.812,10.316 26.699,10.316 21.887,0 39.691,-17.805 39.691,-39.691 0,-15.598 -9.1445,-29.48 -23.043,-35.934 -9.4414,12.43 -24.227,20.617 -41.008,20.617 -5.6836,0 -11.277,-0.93359 -16.605,-2.7383 -3.1211,-1.0664 -4.7969,-4.4688 -3.7148,-7.6055 1.0664,-3.1211 4.4688,-4.7969 7.5938,-3.7148 4.0703,1.3906 8.3633,2.1016 12.727,2.1016 21.887,0 39.707,-17.82 39.707,-39.707 0,-18.246 -12.652,-33.922 -30,-38.332 -7.918,16.16 -23.914,27.469 -42.785,28.742 5.7734,13.156 3.3594,29.082 -7.3984,39.84 -1.168,1.168 -2.707,1.7461 -4.2344,1.7461 -1.5234,0 -3.0625,-0.57812 -4.2344,-1.7461 -2.3398,-2.3398 -2.3398,-6.1289 0,-8.4648 9.3242,-9.3516 9.3398,-24.551 0,-33.891 -9.3516,-9.3242 -24.566,-9.3086 -33.906,0 -2.3398,2.3398 -6.1289,2.3398 -8.4492,0 -2.3398,-2.3398 -2.3398,-6.1289 0,-8.4492 13.617,-13.629 35.488,-13.867 49.578,-1.0078 1.7031,0.22266 3.4023,0.37109 5.1641,0.37109 21.887,0 39.691,-17.82 39.691,-39.691 0,-21.887 -17.82,-39.707 -39.691,-39.707 -3.2422,0 -6.4062,0.53125 -9.5156,1.3008 0.10547,1.332 0.28125,2.6484 0.28125,4.0117 0,6.9688 -1.3633,13.75 -4.0703,20.129 -1.2734,3.0469 -4.8086,4.4844 -7.8281,3.168 -3.0469,-1.2891 -4.4688,-4.7969 -3.1836,-7.8281 2.0703,-4.8984 3.1211,-10.094 3.1211,-15.465 0,-1.8633 -0.14844,-3.6992 -0.38672,-5.5039 -2.6875,-19.543 -19.602,-34.238 -39.316,-34.238 -21.887,0 -39.691,17.805 -39.691,39.691 v 14.488 c 6.3359,-5.4766 14.52,-8.7617 23.457,-8.7617 19.801,0 35.918,16.117 35.918,35.934 0,3.3008 -2.6797,5.9805 -5.9805,5.9805 -3.3008,0 -5.9805,-2.6797 -5.9805,-5.9805 0,-13.215 -10.758,-23.977 -23.961,-23.977 -11.234,0 -20.824,7.6367 -23.352,18.574 -0.0156,0.0898 -0.0898,0.14844 -0.10547,0.23828 v 97.809 c 6.3477,-5.4922 14.562,-8.8203 23.457,-8.8203 19.801,0 35.918,16.117 35.918,35.934 0,3.3008 -2.6797,5.9805 -5.9805,5.9805 -3.3008,0 -5.9805,-2.6797 -5.9805,-5.9805 0,-13.215 -10.758,-23.977 -23.961,-23.977 -11.379,0 -21.207,8.082 -23.457,19.211 v 81.293 c 0.3125,1.582 0.75391,3.1367 1.375,4.6328 3.7578,8.8945 12.418,14.637 22.082,14.637 13.199,0 23.961,-10.758 23.961,-23.961 0,-3.3008 2.6797,-5.9805 5.9805,-5.9805 3.3008,0 5.9805,2.6797 5.9805,5.9805 0,19.816 -16.117,35.934 -35.918,35.934 -8.9258,0 -17.035,-3.5664 -23.457,-9.1914 v 75.004 c 0,21.887 17.805,39.691 39.691,39.691 20.305,0 36.91,-15.391 39.234,-35.074 -0.0312,-0.35547 0.0586,-0.72656 0.10547,-1.0938 0.10547,-1.1836 0.35547,-2.3242 0.35547,-3.5352 0,-6.3633 -1.6562,-12.578 -4.5586,-18.172 -0.17578,0 -0.33984,0.043 -0.51953,0.043 -19.801,0 -35.934,-16.117 -35.934,-35.918 0,-3.3008 2.6797,-5.9805 5.9805,-5.9805 3.3008,0 5.9805,2.6797 5.9805,5.9805 0,13.215 10.758,23.961 23.977,23.961 6.3945,0 12.402,-2.5 16.945,-7.0312 4.5273,-4.5273 7.0156,-10.539 7.0156,-16.93 0,-3.3008 2.6797,-5.9805 5.9805,-5.9805 3.3008,0 5.9805,2.6797 5.9805,5.9805 0,9.5742 -3.7148,18.602 -10.508,25.395 -3.6562,3.6562 -7.9922,6.3359 -12.684,8.125 2.7656,6.3633 4.2617,13.262 4.293,20.289 3.0352,0.72656 6.1133,1.2266 9.25,1.2266 21.887,0 39.691,-17.82 39.691,-39.691 0,-14.605 -7.9922,-27.984 -20.836,-34.926 -2.9023,-1.5703 -3.9961,-5.2109 -2.4258,-8.1094 1.582,-2.9023 5.2109,-4.0117 8.1094,-2.4258 10.004,5.418 17.672,13.867 22.273,23.812 19.891,-2.1328 35.504,-18.809 35.504,-39.262 0,-8.5234 -2.8711,-16.664 -7.875,-23.457 -4.3359,1.1992 -8.8203,2.0273 -13.543,2.0273 -9.9453,0 -19.535,-2.9023 -27.793,-8.1836 -3.9531,19.906 -21.52,34.973 -42.547,34.973 -3.3008,0 -5.9805,-2.6797 -5.9805,-5.9805 0,-3.3008 2.6797,-5.9805 5.9805,-5.9805 17.344,0 31.449,-14.105 31.449,-31.449 0,-17.332 -14.105,-31.449 -31.449,-31.449 -3.3008,0 -5.9805,-2.6797 -5.9805,-5.9805 -0.004,-3.3008 2.7031,-5.9648 6.0039,-5.9648 z"
       id="path2"
       style="fill:#899878;fill-opacity:1" />
    <path
       d="m 346.57,214.21 c 8.8359,0 17.062,3.3906 23.457,8.9102 v -14.625 c 0,-21.887 -17.805,-39.691 -39.691,-39.691 -19.711,0 -36.629,14.695 -39.32,34.203 -0.25391,1.7891 -0.40234,3.625 -0.40234,5.4883 0,5.3711 1.0508,10.566 3.1211,15.465 1.2891,3.0352 -0.13281,6.543 -3.1836,7.8281 -3.0195,1.3164 -6.543,-0.11719 -7.8281,-3.168 -2.6914,-6.3906 -4.0664,-13.152 -4.0664,-20.125 0,-1.3633 0.16406,-2.6797 0.28125,-4.0117 -3.1094,-0.76953 -6.2734,-1.3008 -9.5156,-1.3008 -21.887,0 -39.691,17.82 -39.691,39.707 0,21.887 17.82,39.691 39.691,39.691 1.7617,0 3.4766,-0.14844 5.1953,-0.37109 14.074,-12.875 35.934,-12.625 49.562,1.0078 2.3398,2.3242 2.3398,6.1289 0,8.4492 -2.3398,2.3398 -6.1289,2.3398 -8.4492,0 -9.3242,-9.3242 -24.539,-9.3398 -33.875,0 -4.5273,4.5273 -7.0312,10.539 -7.0312,16.945 0,6.406 2.5,12.43 7.0312,16.961 2.3398,2.3398 2.3398,6.1289 0,8.4648 -1.168,1.168 -2.6953,1.7461 -4.2344,1.7461 -1.5391,0 -3.0625,-0.57812 -4.2344,-1.7461 -6.793,-6.7773 -10.539,-15.82 -10.539,-25.41 0,-5.0625 1.1094,-9.9297 3.0781,-14.43 -18.84,-1.2891 -34.836,-12.594 -42.754,-28.742 -17.344,4.4102 -30,20.082 -30,38.332 0,21.887 17.805,39.707 39.707,39.707 4.3672,0 8.6445,-0.71094 12.727,-2.1016 3.1367,-1.0664 6.5273,0.59375 7.5938,3.7148 1.0664,3.1367 -0.60547,6.5273 -3.7148,7.6055 -5.3281,1.8203 -10.922,2.7383 -16.605,2.7383 -16.781,0 -31.566,-8.168 -41.008,-20.617 -13.91,6.4727 -23.059,20.355 -23.059,35.953 0,21.887 17.805,39.691 39.691,39.691 9.8867,0 19.387,-3.6719 26.699,-10.316 0.26562,-0.23828 0.57812,-0.33984 0.85938,-0.51953 3.0352,-21 20.973,-37.25 42.785,-37.25 3.3008,0 5.9805,2.6797 5.9805,5.9805 0,3.3008 -2.6797,5.9805 -5.9805,5.9805 -17.344,0 -31.449,14.105 -31.449,31.449 0,17.344 14.105,31.449 31.449,31.449 3.3008,0 5.9805,2.6797 5.9805,5.9805 0,3.3008 -2.6797,5.9805 -5.9805,5.9805 -21.043,0 -38.613,-15.066 -42.547,-34.973 -8.2578,5.2852 -17.848,8.1836 -27.793,8.1836 -4.7227,0 -9.207,-0.84375 -13.543,-2.0273 -5.0039,6.793 -7.875,14.934 -7.875,23.457 0,20.438 15.613,37.133 35.504,39.262 4.6016,-9.9609 12.27,-18.41 22.273,-23.812 2.9141,-1.582 6.5273,-0.47266 8.1094,2.4258 1.5703,2.9023 0.48828,6.543 -2.4258,8.1094 -12.848,6.9414 -20.836,20.336 -20.836,34.926 0,21.887 17.82,39.691 39.691,39.691 3.1523,0 6.2148,-0.50391 9.25,-1.2266 0.0312,-7.0312 1.5391,-13.91 4.293,-20.289 -4.6914,-1.7891 -9.0273,-4.4688 -12.684,-8.125 -6.7773,-6.7773 -10.508,-15.805 -10.508,-25.395 0,-3.3164 2.6797,-5.9805 5.9805,-5.9805 3.3164,0 5.9805,2.6797 5.9805,5.9805 0,6.3945 2.4844,12.402 7.0156,16.93 4.5273,4.5273 10.539,7.0312 16.945,7.0312 13.215,0 23.977,-10.746 23.977,-23.961 0,-3.3008 2.6797,-5.9805 5.9805,-5.9805 3.3008,0 5.9805,2.6797 5.9805,5.9805 0,19.801 -16.117,35.918 -35.934,35.918 -0.17578,0 -0.33984,-0.043 -0.51953,-0.043 -2.8867,5.5938 -4.5586,11.809 -4.5586,18.172 0,1.2148 0.25,2.3516 0.35547,3.5352 0.043,0.37109 0.13281,0.73828 0.10547,1.0938 2.3594,19.699 18.965,35.09 39.27,35.09 21.887,0 39.691,-17.805 39.691,-39.691 v -74.723 c -6.3945,5.5508 -14.637,8.9258 -23.457,8.9258 -19.801,0 -35.918,-16.117 -35.918,-35.934 0,-3.3008 2.6797,-5.9805 5.9805,-5.9805 3.3008,0 5.9805,2.6797 5.9805,5.9805 0,13.215 10.758,23.961 23.961,23.961 10.566,0 20.023,-7.0742 22.984,-17.195 0.10547,-0.32422 0.32422,-0.59375 0.47266,-0.88672 v -82.492 c -2.2656,-11.129 -12.078,-19.195 -23.457,-19.195 -13.199,0 -23.961,10.758 -23.961,23.977 0,3.3008 -2.6797,5.9805 -5.9805,5.9805 -3.3008,0 -5.9805,-2.6797 -5.9805,-5.9805 0,-19.801 16.117,-35.934 35.918,-35.934 8.8945,0 17.109,3.3164 23.457,8.8047 v -97.797 c -0.0156,-0.0586 -0.0586,-0.10547 -0.0742,-0.17578 -2.457,-10.805 -12.285,-18.66 -23.383,-18.66 -13.199,0 -23.961,10.758 -23.961,23.977 0,3.3008 -2.6797,5.9805 -5.9805,5.9805 -3.3008,0 -5.9805,-2.6797 -5.9805,-5.9805 -0.0117,-19.809 16.105,-35.938 35.922,-35.938 z"
       id="path4"
       style="fill:#247ba0;fill-opacity:1" />
  </g>
</svg>
